<svg id="Download_on_the_App_Store_Badge_US-UK_RGB_wht_092917" xmlns="http://www.w3.org/2000/svg" width="148.655" height="49.689" viewBox="0 0 148.655 49.689">
  <g id="Group_16640" data-name="Group 16640" transform="translate(0)">
    <g id="Group_16638" data-name="Group 16638">
      <path id="Path_40014" data-name="Path 40014" d="M136.821,0H10.486C10.1,0,9.729.01,9.344.016A16.417,16.417,0,0,0,6.853.237a8.28,8.28,0,0,0-2.36.78A8,8,0,0,0,2.481,2.481,7.775,7.775,0,0,0,1.017,4.495,8.2,8.2,0,0,0,.242,6.86,16.145,16.145,0,0,0,.019,9.346C0,9.727,0,10.11,0,10.494V39.205c0,.386,0,.759.019,1.145a16.144,16.144,0,0,0,.223,2.486A8.184,8.184,0,0,0,1.017,45.2a7.712,7.712,0,0,0,1.464,2.005,7.794,7.794,0,0,0,2.012,1.464,8.324,8.324,0,0,0,2.362.783,16.716,16.716,0,0,0,2.489.22c.384.008.762.013,1.141.013H138.168c.378,0,.767,0,1.145-.013a16.5,16.5,0,0,0,2.485-.22,8.453,8.453,0,0,0,2.37-.783,7.8,7.8,0,0,0,2.008-1.464,7.943,7.943,0,0,0,1.471-2.005,8.2,8.2,0,0,0,.768-2.365,16.778,16.778,0,0,0,.231-2.486V39.208c.01-.452.01-.9.01-1.359v-26c0-.455,0-.906-.01-1.356V9.346a16.779,16.779,0,0,0-.231-2.488,8.22,8.22,0,0,0-.768-2.365,8.034,8.034,0,0,0-3.477-3.476,8.408,8.408,0,0,0-2.37-.78,16.2,16.2,0,0,0-2.485-.22c-.378,0-.767-.013-1.145-.016h-1.346Z"/>
      <path id="Path_40015" data-name="Path 40015" d="M10.28,48.393c-.378,0-.747,0-1.13-.013a15.761,15.761,0,0,1-2.322-.2A7.31,7.31,0,0,1,4.77,47.5a6.716,6.716,0,0,1-1.736-1.262,6.61,6.61,0,0,1-1.262-1.727A7.1,7.1,0,0,1,1.1,42.447a15.421,15.421,0,0,1-.207-2.33c0-.262-.018-1.13-.018-1.13V10.279S.884,9.42.891,9.168A15.368,15.368,0,0,1,1.1,6.842a7.15,7.15,0,0,1,.676-2.065A6.676,6.676,0,0,1,3.033,3.04,6.915,6.915,0,0,1,4.775,1.769a7.234,7.234,0,0,1,2.054-.676A15.636,15.636,0,0,1,9.16.89L10.28.875H137.951l1.13.016a15.385,15.385,0,0,1,2.309.2,7.378,7.378,0,0,1,2.076.681,6.942,6.942,0,0,1,3,3.006,7.158,7.158,0,0,1,.665,2.049,16.144,16.144,0,0,1,.215,2.344v1.106c.01.467.01.909.01,1.356V37.628c0,.452,0,.891-.01,1.335v1.154a15.826,15.826,0,0,1-.213,2.3,7.129,7.129,0,0,1-.672,2.075,6.808,6.808,0,0,1-1.262,1.721,6.724,6.724,0,0,1-1.739,1.271,7.283,7.283,0,0,1-2.073.683,15.585,15.585,0,0,1-2.322.2c-.363.008-.744.013-1.116.013H136.6Z" transform="translate(0.212 0.212)" fill="#fff"/>
    </g>
    <g id="_Group_" data-name="&lt;Group&gt;" transform="translate(11.937 9.748)">
      <g id="_Group_2" data-name="&lt;Group&gt;" transform="translate(0 0)">
        <g id="_Group_3" data-name="&lt;Group&gt;">
          <path id="_Path_" data-name="&lt;Path&gt;" d="M28.725,21.484a6.393,6.393,0,0,1,3.045-5.363,6.545,6.545,0,0,0-5.156-2.788c-2.17-.228-4.272,1.292-5.378,1.292s-2.828-1.275-4.662-1.238A6.866,6.866,0,0,0,10.8,16.91c-2.5,4.325-.634,10.683,1.758,14.18,1.2,1.713,2.6,3.624,4.428,3.552,1.792-.074,2.46-1.143,4.624-1.143s2.77,1.143,4.64,1.1c1.923-.031,3.134-1.719,4.29-3.448a14.162,14.162,0,0,0,1.962-4,6.178,6.178,0,0,1-3.771-5.683Z" transform="translate(-9.609 -6.523)"/>
          <path id="_Path_2" data-name="&lt;Path&gt;" d="M22.976,12.356a6.3,6.3,0,0,0,1.44-4.509,6.4,6.4,0,0,0-4.149,2.144,5.99,5.99,0,0,0-1.477,4.343A5.3,5.3,0,0,0,22.976,12.356Z" transform="translate(-7.389 -7.847)"/>
        </g>
      </g>
      <g id="Group_16639" data-name="Group 16639" transform="translate(30.831 12.449)">
        <path id="Path_40016" data-name="Path 40016" d="M44.21,29.335H38.329l-1.413,4.17H34.427L40,18.078H42.58l5.57,15.428H45.621Zm-5.271-1.924H43.6l-2.3-6.768h-.065Z" transform="translate(-34.427 -17.818)"/>
        <path id="Path_40017" data-name="Path 40017" d="M57.225,27.084c0,3.5-1.871,5.741-4.693,5.741a3.813,3.813,0,0,1-3.539-1.968H48.94v5.571H46.631V21.466h2.234v1.871h.042a3.989,3.989,0,0,1,3.581-1.989C55.344,21.348,57.225,23.6,57.225,27.084Zm-2.373,0c0-2.276-1.177-3.775-2.972-3.775-1.765,0-2.951,1.529-2.951,3.775s1.187,3.784,2.951,3.784C53.675,30.868,54.852,29.381,54.852,27.084Z" transform="translate(-31.47 -17.026)"/>
        <path id="Path_40018" data-name="Path 40018" d="M67.189,27.084c0,3.5-1.871,5.741-4.695,5.741a3.813,3.813,0,0,1-3.539-1.968H58.9v5.571H56.6V21.466h2.228v1.871h.042a3.989,3.989,0,0,1,3.581-1.989C65.307,21.348,67.189,23.6,67.189,27.084Zm-2.373,0c0-2.276-1.177-3.775-2.972-3.775-1.765,0-2.951,1.529-2.951,3.775s1.187,3.784,2.951,3.784C63.639,30.868,64.816,29.381,64.816,27.084Z" transform="translate(-29.053 -17.026)"/>
        <path id="Path_40019" data-name="Path 40019" d="M72.171,29.257c.171,1.53,1.658,2.535,3.687,2.535,1.945,0,3.347-1,3.347-2.385,0-1.2-.844-1.915-2.843-2.406l-2-.484c-2.833-.685-4.147-2.008-4.147-4.159,0-2.662,2.32-4.49,5.612-4.49,3.261,0,5.489,1.828,5.571,4.49H79.066c-.139-1.54-1.413-2.468-3.272-2.468s-3.132.94-3.132,2.309c0,1.091.807,1.732,2.8,2.223l1.7.417c3.166.749,4.478,2.02,4.478,4.277,0,2.887-2.3,4.693-5.954,4.693-3.421,0-5.731-1.765-5.88-4.556Z" transform="translate(-25.854 -17.869)"/>
        <path id="Path_40020" data-name="Path 40020" d="M84.117,19.3v2.662h2.139V23.79H84.117v6.2c0,.969.428,1.413,1.369,1.413a7.214,7.214,0,0,0,.759-.053v1.818a6.339,6.339,0,0,1-1.282.107c-2.276,0-3.166-.856-3.166-3.037V23.79H80.163V21.961H81.8V19.3Z" transform="translate(-23.345 -17.521)"/>
        <path id="Path_40021" data-name="Path 40021" d="M86.064,27.093c0-3.539,2.084-5.762,5.328-5.762s5.328,2.223,5.328,5.762-2.063,5.762-5.328,5.762S86.064,30.645,86.064,27.093Zm8.318,0c0-2.422-1.112-3.86-2.983-3.86s-2.983,1.438-2.983,3.86,1.112,3.859,2.983,3.859,2.983-1.422,2.983-3.859Z" transform="translate(-21.915 -17.03)"/>
        <path id="Path_40022" data-name="Path 40022" d="M96.185,21.466h2.2V23.38h.053a2.683,2.683,0,0,1,2.706-2.033,3.561,3.561,0,0,1,.791.086v2.16a3.229,3.229,0,0,0-1.038-.139,2.326,2.326,0,0,0-2.406,2.583v6.671H96.185Z" transform="translate(-19.463 -17.026)"/>
        <path id="Path_40023" data-name="Path 40023" d="M111.362,29.411a4.52,4.52,0,0,1-4.843,3.444c-3.272,0-5.3-2.192-5.3-5.709s2.042-5.812,5.207-5.812c3.113,0,5.069,2.138,5.069,5.547v.791h-7.943v.139A2.929,2.929,0,0,0,106.573,31a2.544,2.544,0,0,0,2.6-1.582Zm-7.8-3.356h5.623a2.7,2.7,0,0,0-2.759-2.854,2.848,2.848,0,0,0-2.864,2.854Z" transform="translate(-18.243 -17.028)"/>
      </g>
    </g>
  </g>
  <g id="_Group_4" data-name="&lt;Group&gt;" transform="translate(44.314 10.481)">
    <g id="Group_16641" data-name="Group 16641">
      <path id="Path_40024" data-name="Path 40024" d="M38.348,8.732a3.279,3.279,0,0,1,3.487,3.683,3.3,3.3,0,0,1-3.487,3.729H35.671V8.732ZM36.822,15.1h1.4a2.33,2.33,0,0,0,2.444-2.665A2.336,2.336,0,0,0,38.22,9.78h-1.4Z" transform="translate(-35.671 -8.367)"/>
      <path id="Path_40025" data-name="Path 40025" d="M41.683,13.014a2.651,2.651,0,1,1,5.276,0,2.651,2.651,0,1,1-5.276,0Zm4.141,0c0-1.212-.544-1.921-1.5-1.921s-1.5.709-1.5,1.921.539,1.926,1.5,1.926S45.824,14.232,45.824,13.014Z" transform="translate(-34.218 -8.035)"/>
      <path id="Path_40026" data-name="Path 40026" d="M52.784,15.789H51.638l-1.156-4.12h-.087l-1.151,4.12h-1.13L46.572,10.2h1.12l1,4.269h.082L49.927,10.2h1.049l1.149,4.269h.087l1-4.269h1.1Z" transform="translate(-33.029 -8.011)"/>
      <path id="Path_40027" data-name="Path 40027" d="M53.854,10.217h1.062v.888H55a1.674,1.674,0,0,1,1.669-1A1.819,1.819,0,0,1,58.61,12.2v3.621h-1.1V12.466c0-.9-.391-1.346-1.208-1.346a1.283,1.283,0,0,0-1.335,1.417V15.81h-1.1Z" transform="translate(-31.265 -8.033)"/>
      <path id="Path_40028" data-name="Path 40028" d="M59.094,8.437h1.1v7.778h-1.1Z" transform="translate(-29.996 -8.437)"/>
      <path id="Path_40029" data-name="Path 40029" d="M61.22,13.011a2.651,2.651,0,1,1,5.278,0,2.651,2.651,0,1,1-5.278,0Zm4.141,0c0-1.212-.544-1.921-1.5-1.921s-1.5.709-1.5,1.921.539,1.926,1.5,1.926S65.361,14.229,65.361,13.011Z" transform="translate(-29.483 -8.032)"/>
      <path id="Path_40030" data-name="Path 40030" d="M66.4,14.229c0-1.007.749-1.587,2.081-1.669L70,12.472v-.484c0-.591-.391-.925-1.145-.925-.617,0-1.043.226-1.166.622H66.618c.113-.969,1.017-1.577,2.286-1.577,1.4,0,2.194.7,2.194,1.879v3.825H70.036v-.786h-.084a1.882,1.882,0,0,1-1.681.878A1.69,1.69,0,0,1,66.4,14.229Zm3.6-.484v-.468l-1.366.087c-.77.052-1.12.313-1.12.807s.438.8,1.038.8A1.319,1.319,0,0,0,70,13.744Z" transform="translate(-28.225 -8.032)"/>
      <path id="Path_40031" data-name="Path 40031" d="M71.348,13.413c0-1.768.909-2.887,2.322-2.887a1.844,1.844,0,0,1,1.716.982h.082V8.441h1.1v7.778H75.515v-.883h-.087a1.937,1.937,0,0,1-1.756.969C72.239,16.3,71.348,15.185,71.348,13.413Zm1.14,0c0,1.187.559,1.9,1.495,1.9s1.506-.725,1.506-1.9-.581-1.9-1.506-1.9S72.488,12.237,72.488,13.413Z" transform="translate(-27.025 -8.435)"/>
      <path id="Path_40032" data-name="Path 40032" d="M79.233,13.014a2.651,2.651,0,1,1,5.276,0,2.651,2.651,0,1,1-5.276,0Zm4.141,0c0-1.212-.544-1.921-1.5-1.921s-1.5.709-1.5,1.921.539,1.926,1.5,1.926,1.5-.709,1.5-1.926Z" transform="translate(-25.119 -8.035)"/>
      <path id="Path_40033" data-name="Path 40033" d="M84.669,10.217h1.062v.888h.082a1.674,1.674,0,0,1,1.669-1A1.819,1.819,0,0,1,89.42,12.19v3.621h-1.1V12.466c0-.9-.391-1.346-1.208-1.346a1.283,1.283,0,0,0-1.335,1.417V15.81h-1.1Z" transform="translate(-23.799 -8.033)"/>
      <path id="Path_40034" data-name="Path 40034" d="M93.9,9.074v1.417H95.12v.93H93.907V14.3c0,.586.242.843.791.843a3.686,3.686,0,0,0,.421-.026v.92a3.621,3.621,0,0,1-.6.057c-1.227,0-1.716-.433-1.716-1.511V11.421h-.888v-.93H92.8V9.074Z" transform="translate(-22.041 -8.283)"/>
      <path id="Path_40035" data-name="Path 40035" d="M95.7,8.437h1.095v3.082h.087a1.721,1.721,0,0,1,1.706-1,1.842,1.842,0,0,1,1.926,2.086v3.611h-1.1V12.875c0-.893-.417-1.346-1.2-1.346a1.306,1.306,0,0,0-1.408,1.417v3.268H95.7Z" transform="translate(-21.126 -8.437)"/>
      <path id="Path_40036" data-name="Path 40036" d="M105.742,14.3a2.271,2.271,0,0,1-2.422,1.614,2.541,2.541,0,0,1-2.583-2.887A2.583,2.583,0,0,1,103.32,10.1c1.556,0,2.5,1.064,2.5,2.82v.386h-3.951v.061a1.479,1.479,0,0,0,1.49,1.6,1.342,1.342,0,0,0,1.33-.678Zm-3.883-1.8h2.825a1.35,1.35,0,0,0-1.377-1.453,1.43,1.43,0,0,0-1.453,1.453Z" transform="translate(-19.909 -8.036)"/>
    </g>
  </g>
</svg>
